<svg width="50" height="50" viewBox="0 0 50 50" fill="none" xmlns="http://www.w3.org/2000/svg">
<path d="M25 0C31.6304 0 37.9893 2.63392 42.6777 7.32233C47.3661 12.0107 50 18.3696 50 25C50 31.6304 47.3661 37.9893 42.6777 42.6777C37.9893 47.3661 31.6304 50 25 50C18.3696 50 12.0107 47.3661 7.32233 42.6777C2.63392 37.9893 0 31.6304 0 25C0 18.3696 2.63392 12.0107 7.32233 7.32233C12.0107 2.63392 18.3696 0 25 0ZM14.0625 23.4375C13.6481 23.4375 13.2507 23.6021 12.9576 23.8951C12.6646 24.1882 12.5 24.5856 12.5 25C12.5 25.4144 12.6646 25.8118 12.9576 26.1049C13.2507 26.3979 13.6481 26.5625 14.0625 26.5625H32.1656L25.4562 33.2687C25.311 33.414 25.1957 33.5865 25.1171 33.7763C25.0385 33.9661 24.998 34.1696 24.998 34.375C24.998 34.5804 25.0385 34.7839 25.1171 34.9737C25.1957 35.1635 25.311 35.336 25.4562 35.4813C25.6015 35.6265 25.774 35.7418 25.9638 35.8204C26.1536 35.899 26.357 35.9395 26.5625 35.9395C26.768 35.9395 26.9714 35.899 27.1612 35.8204C27.351 35.7418 27.5235 35.6265 27.6688 35.4813L37.0438 26.1063C37.1893 25.9611 37.3047 25.7887 37.3835 25.5989C37.4622 25.409 37.5028 25.2055 37.5028 25C37.5028 24.7945 37.4622 24.591 37.3835 24.4011C37.3047 24.2113 37.1893 24.0389 37.0438 23.8937L27.6688 14.5187C27.5235 14.3735 27.351 14.2582 27.1612 14.1796C26.9714 14.101 26.768 14.0605 26.5625 14.0605C26.357 14.0605 26.1536 14.101 25.9638 14.1796C25.774 14.2582 25.6015 14.3735 25.4562 14.5187C25.311 14.664 25.1957 14.8365 25.1171 15.0263C25.0385 15.2161 24.998 15.4195 24.998 15.625C24.998 15.8305 25.0385 16.0339 25.1171 16.2237C25.1957 16.4135 25.311 16.586 25.4562 16.7313L32.1656 23.4375H14.0625Z" fill="#240046"/>
</svg>
