<svg width="50" height="47" viewBox="0 0 50 47" fill="none" xmlns="http://www.w3.org/2000/svg">
<path fill-rule="evenodd" clip-rule="evenodd" d="M3.125 23.2543C3.125 28.6508 5.42968 33.8262 9.53204 37.6421C13.6344 41.458 19.1984 43.6018 25 43.6018C30.8016 43.6018 36.3656 41.458 40.468 37.6421C44.5703 33.8262 46.875 28.6508 46.875 23.2543C46.875 17.8578 44.5703 12.6823 40.468 8.86643C36.3656 5.05053 30.8016 2.90678 25 2.90678C19.1984 2.90678 13.6344 5.05053 9.53204 8.86643C5.42968 12.6823 3.125 17.8578 3.125 23.2543ZM50 23.2543C50 29.4217 47.3661 35.3365 42.6777 39.6975C37.9893 44.0585 31.6304 46.5085 25 46.5085C18.3696 46.5085 12.0107 44.0585 7.32233 39.6975C2.63392 35.3365 0 29.4217 0 23.2543C0 17.0869 2.63392 11.172 7.32233 6.81102C12.0107 2.45 18.3696 0 25 0C31.6304 0 37.9893 2.45 42.6777 6.81102C47.3661 11.172 50 17.0869 50 23.2543ZM35.9375 21.8009C36.3519 21.8009 36.7493 21.954 37.0424 22.2266C37.3354 22.4991 37.5 22.8688 37.5 23.2543C37.5 23.6397 37.3354 24.0094 37.0424 24.282C36.7493 24.5545 36.3519 24.7077 35.9375 24.7077H17.8344L24.5438 30.9456C24.689 31.0808 24.8043 31.2412 24.8829 31.4177C24.9615 31.5943 25.002 31.7835 25.002 31.9746C25.002 32.1657 24.9615 32.355 24.8829 32.5315C24.8043 32.7081 24.689 32.8685 24.5438 33.0036C24.3985 33.1388 24.226 33.2459 24.0362 33.3191C23.8464 33.3922 23.643 33.4299 23.4375 33.4299C23.232 33.4299 23.0286 33.3922 22.8388 33.3191C22.649 33.2459 22.4765 33.1388 22.3312 33.0036L12.9562 24.2833C12.8107 24.1483 12.6953 23.9879 12.6165 23.8113C12.5378 23.6347 12.4972 23.4454 12.4972 23.2543C12.4972 23.0631 12.5378 22.8738 12.6165 22.6972C12.6953 22.5207 12.8107 22.3603 12.9562 22.2253L22.3312 13.5049C22.6246 13.232 23.0226 13.0787 23.4375 13.0787C23.8524 13.0787 24.2504 13.232 24.5438 13.5049C24.8371 13.7778 25.002 14.148 25.002 14.5339C25.002 14.9199 24.8371 15.29 24.5438 15.5629L17.8344 21.8009H35.9375Z" fill="#240046"/>
</svg>
