<svg width="47" height="47" viewBox="0 0 47 47" fill="none" xmlns="http://www.w3.org/2000/svg">
<g clip-path="url(#clip0)">
<path d="M46.1538 23.0769C46.1538 10.3284 35.8168 0 23.0769 0C10.3284 0 0 10.3284 0 23.0769C0 34.5923 8.43606 44.1404 19.4712 45.8697V29.749H13.6111V23.0784H19.4712V17.9913C19.4712 12.2091 22.9111 9.01587 28.1841 9.01587C30.7096 9.01587 33.3534 9.46587 33.3534 9.46587V15.1442H30.4385C27.5769 15.1442 26.6827 16.9255 26.6827 18.75V23.0769H33.0822L32.0538 29.7476H26.6827V45.8683C37.7091 44.1389 46.1538 34.5909 46.1538 23.0755V23.0769Z" fill="#FF9E00"/>
</g>
<defs>
<clipPath id="clip0">
<rect width="46.1538" height="46.1538" fill="white"/>
</clipPath>
</defs>
</svg>
