<svg width="24" height="24" viewBox="0 0 24 24" fill="none" xmlns="http://www.w3.org/2000/svg">
<path d="M22.1838 11.8358L12.5299 2.18895C12.4604 2.1193 12.3778 2.06404 12.2869 2.02634C12.196 1.98864 12.0986 1.96924 12.0002 1.96924C11.9018 1.96924 11.8044 1.98864 11.7135 2.02634C11.6226 2.06404 11.54 2.1193 11.4705 2.18895L1.8166 11.8358C1.53535 12.1171 1.37598 12.4991 1.37598 12.8975C1.37598 13.7249 2.04863 14.3975 2.87598 14.3975H3.89316V21.2811C3.89316 21.696 4.22832 22.0311 4.64316 22.0311H10.5002V16.7811H13.1252V22.0311H19.3572C19.7721 22.0311 20.1072 21.696 20.1072 21.2811V14.3975H21.1244C21.5229 14.3975 21.9049 14.2405 22.1861 13.9569C22.7697 13.371 22.7697 12.4218 22.1838 11.8358Z" fill="#FF9E00"/>
</svg>
