<svg width="40" height="40" viewBox="0 0 40 40" fill="none" xmlns="http://www.w3.org/2000/svg">
<path d="M20.3089 13.4912C16.725 13.4912 13.8002 16.416 13.8002 20C13.8002 23.584 16.725 26.5088 20.3089 26.5088C23.8929 26.5088 26.8177 23.584 26.8177 20C26.8177 16.416 23.8929 13.4912 20.3089 13.4912ZM39.8304 20C39.8304 17.3047 39.8548 14.6338 39.7035 11.9433C39.5521 8.81833 38.8392 6.04489 36.5541 3.75974C34.264 1.4697 31.4955 0.761691 28.3705 0.610324C25.6752 0.458957 23.0043 0.483371 20.3138 0.483371C17.6185 0.483371 14.9476 0.458957 12.2572 0.610324C9.13219 0.761691 6.35875 1.47458 4.0736 3.75974C1.78356 6.04978 1.07555 8.81833 0.924182 11.9433C0.772815 14.6386 0.797229 17.3095 0.797229 20C0.797229 22.6904 0.772815 25.3662 0.924182 28.0566C1.07555 31.1816 1.78844 33.9551 4.0736 36.2402C6.36364 38.5302 9.13219 39.2383 12.2572 39.3896C14.9525 39.541 17.6234 39.5166 20.3138 39.5166C23.0091 39.5166 25.68 39.541 28.3705 39.3896C31.4955 39.2383 34.2689 38.5254 36.5541 36.2402C38.8441 33.9502 39.5521 31.1816 39.7035 28.0566C39.8597 25.3662 39.8304 22.6953 39.8304 20ZM20.3089 30.0146C14.767 30.0146 10.2943 25.542 10.2943 20C10.2943 14.458 14.767 9.98532 20.3089 9.98532C25.8509 9.98532 30.3236 14.458 30.3236 20C30.3236 25.542 25.8509 30.0146 20.3089 30.0146ZM30.7338 11.914C29.4398 11.914 28.3949 10.8691 28.3949 9.57517C28.3949 8.28122 29.4398 7.2363 30.7338 7.2363C32.0277 7.2363 33.0726 8.28122 33.0726 9.57517C33.073 9.88242 33.0128 10.1867 32.8954 10.4707C32.778 10.7546 32.6057 11.0126 32.3884 11.2299C32.1712 11.4471 31.9132 11.6194 31.6293 11.7368C31.3453 11.8542 31.041 11.9144 30.7338 11.914Z" fill="#FF9E00"/>
</svg>
