<svg width="43" height="44" viewBox="0 0 43 44" fill="none" xmlns="http://www.w3.org/2000/svg">
<path d="M8.60375 0.857712C4.0465 0.857712 0.31665 4.58747 0.31665 9.14482V34.8612C0.31665 39.4184 4.04641 43.1469 8.60375 43.1469H34.3201C38.8774 43.1469 42.6059 39.4185 42.6059 34.8612V9.14482C42.6059 4.58756 38.8774 0.857712 34.3201 0.857712H8.60375ZM10.6881 7.83628C12.8732 7.83628 14.2191 9.27077 14.2607 11.1564C14.2607 13.0004 12.8731 14.4752 10.6458 14.4752H10.6048C8.46131 14.4752 7.07586 13.0004 7.07586 11.1564C7.07586 9.27081 8.50323 7.83628 10.688 7.83628H10.6881ZM29.5184 16.6494C33.7208 16.6494 36.8711 19.3961 36.8711 25.2986V36.3176H30.4846V26.0374C30.4846 23.4541 29.5603 21.6916 27.2491 21.6916C25.4847 21.6916 24.433 22.8795 23.9712 24.0271C23.8025 24.4377 23.7611 25.011 23.7611 25.5854V36.3176H17.3746C17.3746 36.3176 17.4584 18.9032 17.3746 17.1001H23.7624V19.8215C24.6111 18.512 26.1292 16.6494 29.5184 16.6494V16.6494ZM7.45256 17.1015H13.839V36.3177H7.45256V17.1015Z" fill="#FF9E00"/>
</svg>
