<svg width="24" height="24" viewBox="0 0 24 24" fill="none" xmlns="http://www.w3.org/2000/svg">
<path d="M12.408 3C16.4995 3 19.816 6.31651 19.816 10.408C19.816 13.5384 17.6164 16.9499 13.2742 20.6789C13.0327 20.8864 12.7249 21.0003 12.4066 21C12.0883 20.9997 11.7807 20.8853 11.5396 20.6774L11.2524 20.4282C7.10236 16.7964 5 13.4685 5 10.408C5 6.31651 8.31651 3 12.408 3ZM12.408 4.1397C10.7456 4.1397 9.15118 4.80011 7.97564 5.97564C6.80011 7.15118 6.1397 8.74555 6.1397 10.408C6.1397 13.0688 8.07566 16.1346 12.0008 19.5689L12.2842 19.8143C12.3186 19.8439 12.3626 19.8602 12.408 19.8602C12.4535 19.8602 12.4974 19.8439 12.5319 19.8143C16.6469 16.2797 18.6763 13.1319 18.6763 10.408C18.6763 9.58485 18.5142 8.76974 18.1992 8.00923C17.8842 7.24873 17.4225 6.55771 16.8404 5.97564C16.2583 5.39358 15.5673 4.93186 14.8068 4.61684C14.0463 4.30183 13.2312 4.1397 12.408 4.1397ZM12.408 7.55878C13.1637 7.55878 13.8884 7.85897 14.4227 8.3933C14.9571 8.92764 15.2573 9.65235 15.2573 10.408C15.2573 11.1637 14.9571 11.8884 14.4227 12.4227C13.8884 12.9571 13.1637 13.2573 12.408 13.2573C11.6524 13.2573 10.9276 12.9571 10.3933 12.4227C9.85897 11.8884 9.55878 11.1637 9.55878 10.408C9.55878 9.65235 9.85897 8.92764 10.3933 8.3933C10.9276 7.85897 11.6524 7.55878 12.408 7.55878ZM12.408 8.69847C11.9546 8.69847 11.5198 8.87859 11.1992 9.19919C10.8786 9.51979 10.6985 9.95462 10.6985 10.408C10.6985 10.8614 10.8786 11.2962 11.1992 11.6168C11.5198 11.9374 11.9546 12.1176 12.408 12.1176C12.8614 12.1176 13.2962 11.9374 13.6168 11.6168C13.9374 11.2962 14.1176 10.8614 14.1176 10.408C14.1176 9.95462 13.9374 9.51979 13.6168 9.19919C13.2962 8.87859 12.8614 8.69847 12.408 8.69847Z" fill="#FF9E00"/>
</svg>
