<svg width="498" height="500" viewBox="0 0 498 500" fill="none" xmlns="http://www.w3.org/2000/svg">
<path fill-rule="evenodd" clip-rule="evenodd" d="M249.356 497C385.006 497 495 386.43 495 250C495 113.57 385.006 3 249.356 3C113.706 3 3.7124 113.57 3.7124 250C3.7124 386.43 113.706 497 249.356 497ZM249.356 500C386.678 500 498 388.071 498 250C498 111.929 386.678 0 249.356 0C112.034 0 0.712402 111.929 0.712402 250C0.712402 388.071 112.034 500 249.356 500ZM249.356 447C357.542 447 445.271 358.815 445.271 250C445.271 141.184 357.542 53 249.356 53C141.171 53 53.4412 141.184 53.4412 250C53.4412 358.815 141.171 447 249.356 447ZM249.356 450C359.214 450 448.271 360.457 448.271 250C448.271 139.543 359.214 50 249.356 50C139.499 50 50.4412 139.543 50.4412 250C50.4412 360.457 139.499 450 249.356 450ZM395.543 250C395.543 331.201 330.077 397 249.356 397C168.635 397 103.17 331.201 103.17 250C103.17 168.799 168.635 103 249.356 103C330.077 103 395.543 168.799 395.543 250ZM398.543 250C398.543 332.843 331.75 400 249.356 400C166.963 400 100.17 332.843 100.17 250C100.17 167.157 166.963 100 249.356 100C331.75 100 398.543 167.157 398.543 250Z" fill="#FF9E00" fill-opacity="0.2"/>
</svg>
